#!OML:ASF G:\JayActor3\Patient Classification 1\Patient 1\Session 5\male.ASF
:FULLY-SPECIFIED
:DEGREES
706
root -35.1941 16.838 -5.64777 1079.76 -151.75 -1078.38
lowerback 3.01701 -1.36849 -1.35282
upperback 2.67549 -1.93641 -1.11175
thorax 1.058 -1.01809 -0.342953
lowerneck -8.16635 -5.83589 -4.21131
upperneck 7.90766 -8.60787 10.2921
head 4.34052 -3.95217 3.27365
rclavicle -7.40473e-014 -4.77083e-015
rhumerus -32.4149 -3.69152 -85.6778
rradius 31.2646
rwrist -0.00114564
rhand -19.5966 -5.10941
rfingers 7.12502
rthumb 6.72923 -34.9825
lclavicle -7.40473e-014 -4.77083e-015
lhumerus -26.1291 -0.0482691 84.6542
lradius 23.1741
lwrist 13.7132
lhand -20.9651 15.945
lfingers 7.12502
lthumb 5.40802 45.856
rfemur -25.0965 -17.0792 24.5692
rtibia 45.5537
rfoot -36.9164 -31.8931
rtoes 14.1829
lfemur -4.88804 14.1921 -22.6476
ltibia 24.4512
lfoot -36.0369 34.9951
ltoes 6.57715
707
root -35.1922 16.8348 -5.67401 1079.79 -152.635 -1078.39
lowerback 2.92588 -1.40401 -1.33841
upperback 2.63576 -1.97982 -1.08128
thorax 1.06891 -1.03868 -0.320861
lowerneck -8.15764 -5.88024 -4.47454
upperneck 8.02554 -8.66983 10.4421
head 4.39749 -3.98181 3.35618
rclavicle -8.21975e-014 4.37326e-014
rhumerus -32.5022 -3.84489 -85.4926
rradius 30.9931
rwrist 0.137742
rhand -19.6117 -5.06576
rfingers 7.12502
rthumb 6.71467 -34.9393
lclavicle -8.21975e-014 4.37326e-014
lhumerus -26.0668 0.24724 84.4829
lradius 22.9717
lwrist 13.3235
lhand -21.0029 15.9296
lfingers 7.12502
lthumb 5.37157 45.8416
rfemur -24.8369 -16.8401 24.6187
rtibia 45.2035
rfoot -36.3592 -31.2612
rtoes 13.2752
lfemur -4.75316 14.2456 -22.6476
ltibia 24.4521
lfoot -36.8097 35.33
ltoes 6.90843
708
root -35.1897 16.832 -5.70199 1079.8 -153.468 -1078.39
lowerback 2.84343 -1.45223 -1.31473
upperback 2.59449 -2.04006 -1.04286
thorax 1.07347 -1.06749 -0.295311
lowerneck -8.17225 -5.93671 -4.71734
upperneck 8.16318 -8.74964 10.569
head 4.46412 -4.01955 3.42617
rclavicle -1.94809e-014 -2.94201e-014
rhumerus -32.5957 -4.00652 -85.3057
rradius 30.7099
rwrist 0.274836
rhand -19.6501 -5.02697
rfingers 7.12502
rthumb 6.67763 -34.9017
lclavicle -1.94809e-014 -2.94201e-014
lhumerus -25.999 0.616847 84.2958
lradius 22.7365
lwrist 12.8579
lhand -21.0058 15.91
lfingers 7.12502
lthumb 5.36874 45.822
rfemur -24.5511 -16.5641 24.6836
rtibia 44.8704
rfoot -35.887 -30.6811
rtoes 12.5659
lfemur -4.60927 14.293 -22.6203
ltibia 24.4635
lfoot -37.5552 35.6325
ltoes 7.24642
709
root -35.1879 16.829 -5.73145 1079.79 -154.316 -1078.39
lowerback 2.76196 -1.48924 -1.26861
upperback 2.5676 -2.08552 -1.01132
thorax 1.09116 -1.08893 -0.289943
lowerneck -8.19966 -6.00583 -4.88502
upperneck 8.28833 -8.84722 10.6398
head 4.52501 -4.06633 3.46514
rclavicle -3.57812e-015 4.77083e-015
rhumerus -32.6821 -4.1764 -85.126
rradius 30.4176
rwrist 0.419561
rhand -19.6864 -4.96967
rfingers 7.12502
rthumb 6.64255 -34.8455
lclavicle -3.57812e-015 4.77083e-015
lhumerus -25.92 0.974069 84.106
lradius 22.4895
lwrist 12.3944
lhand -21.0191 15.8948
lfingers 7.12502
lthumb 5.35589 45.8071
rfemur -24.2405 -16.2197 24.7438
rtibia 44.5644
rfoot -35.4419 -30.2097
rtoes 12.0783
lfemur -4.42998 14.2737 -22.5984
ltibia 24.4733
lfoot -38.4307 35.9404
ltoes 7.69654
710
root -35.1849 16.827 -5.76179 1079.77 -155.163 -1078.38
lowerback 2.67011 -1.52378 -1.2185
upperback 2.54721 -2.12763 -0.981657
thorax 1.12107 -1.10878 -0.289344
lowerneck -8.22049 -6.07729 -4.9602
upperneck 8.37835 -8.94738 10.6445
head 4.56739 -4.11569 3.4691
rclavicle -2.01766e-014 -3.02153e-014
rhumerus -32.755 -4.34429 -84.9597
rradius 30.1179
rwrist 0.572188
rhand -19.7259 -4.92703
rfingers 7.12502
rthumb 6.60438 -34.804
lclavicle -2.01766e-014 -3.02153e-014
lhumerus -25.8396 1.25116 83.9291
lradius 22.2555
lwrist 12.0118
lhand -21.0611 15.8982
lfingers 7.12502
lthumb 5.31536 45.8115
rfemur -23.9432 -15.8043 24.8127
rtibia 44.2849
rfoot -35.0285 -29.8269
rtoes 11.7623
lfemur -4.24519 14.2682 -22.5684
ltibia 24.4715
lfoot -39.3021 36.2336
ltoes 8.12761
711
root -35.1813 16.8262 -5.79265 1079.75 -156.007 -1078.37
lowerback 2.57084 -1.5557 -1.15522
upperback 2.54193 -2.16649 -0.960125
thorax 1.16982 -1.12712 -0.305117
lowerneck -8.22602 -6.14773 -4.97263
upperneck 8.41925 -9.04516 10.6177
head 4.58786 -4.16517 3.4542
rclavicle 7.65321e-015 -1.59028e-015
rhumerus -32.8061 -4.50032 -84.8183
rradius 29.8163
rwrist 0.719433
rhand -19.7652 -4.90457
rfingers 7.12502
rthumb 6.56653 -34.7828
lclavicle 7.65321e-015 -1.59028e-015
lhumerus -25.7483 1.47168 83.7569
lradius 22.0343
lwrist 11.6835
lhand -21.1418 15.9093
lfingers 7.12502
lthumb 5.23743 45.8246
rfemur -23.6577 -15.3261 24.8827
rtibia 44.0313
rfoot -34.6565 -29.4852
rtoes 11.5753
lfemur -4.04451 14.2805 -22.5318
ltibia 24.4532
lfoot -40.1604 36.5174
ltoes 8.53482
712
root -35.1771 16.8267 -5.82382 1079.72 -156.85 -1078.35
lowerback 2.46954 -1.58501 -1.07965
upperback 2.54631 -2.20214 -0.94435
thorax 1.22886 -1.14385 -0.334067
lowerneck -8.19609 -6.21333 -4.93815
upperneck 8.39611 -9.13483 10.5767
head 4.57942 -4.21266 3.42967
rclavicle 1.78906e-014 -2.22639e-014
rhumerus -32.838 -4.6646 -84.6909
rradius 29.5033
rwrist 0.891085
rhand -19.7984 -4.87888
rfingers 7.12502
rthumb 6.53448 -34.7581
lclavicle 1.78906e-014 -2.22639e-014
lhumerus -25.657 1.62653 83.5921
lradius 21.8392
lwrist 11.4378
lhand -21.2316 15.9408
lfingers 7.12502
lthumb 5.15069 45.8582
rfemur -23.3922 -14.7923 24.9599
rtibia 43.7989
rfoot -34.3128 -29.1904
rtoes 11.4669
lfemur -3.83364 14.3174 -22.4859
ltibia 24.4195
lfoot -40.9944 36.7965
ltoes 8.88027
713
root -35.1724 16.8282 -5.85499 1079.69 -157.695 -1078.33
lowerback 2.37464 -1.61195 -0.997959
upperback 2.5526 -2.23499 -0.930842
thorax 1.2859 -1.15909 -0.368714
lowerneck -8.14487 -6.28008 -4.92402
upperneck 8.3437 -9.22592 10.5691
head 4.56112 -4.26149 3.4195
rclavicle -5.08889e-014 1.43125e-014
rhumerus -32.8584 -4.82732 -84.5736
rradius 29.1805
rwrist 1.08235
rhand -19.8222 -4.86798
rfingers 7.12502
rthumb 6.51142 -34.7479
lclavicle -5.08889e-014 1.43125e-014
lhumerus -25.5676 1.82101 83.4164
lradius 21.6484
lwrist 11.1651
lhand -21.3332 15.9703
lfingers 7.12502
lthumb 5.05259 45.8901
rfemur -23.1483 -14.2208 25.0419
rtibia 43.5847
rfoot -34.0059 -28.921
rtoes 11.4417
lfemur -3.62031 14.4163 -22.4296
ltibia 24.3801
lfoot -41.7542 37.0709
ltoes 9.15495
714
root -35.1675 16.8306 -5.8859 1079.66 -158.537 -1078.31
lowerback 2.29272 -1.63735 -0.920542
upperback 2.55425 -2.26621 -0.916793
thorax 1.33104 -1.17347 -0.399989
lowerneck -8.06107 -6.34772 -4.94116
upperneck 8.24973 -9.31808 10.6104
head 4.52865 -4.3119 3.43067
rclavicle -8.00108e-014 1.27222e-014
rhumerus -32.8691 -5.01275 -84.4505
rradius 28.836
rwrist 1.32093
rhand -19.8351 -4.84047
rfingers 7.12502
rthumb 6.49901 -34.7207
lclavicle -8.00108e-014 1.27222e-014
lhumerus -25.4858 2.07773 83.2325
lradius 21.4639
lwrist 10.8551
lhand -21.4345 16.0053
lfingers 7.12502
lthumb 4.95485 45.9273
rfemur -22.9273 -13.6174 25.1275
rtibia 43.3849
rfoot -33.7391 -28.6951
rtoes 11.4613
lfemur -3.42085 14.6013 -22.3632
ltibia 24.3522
lfoot -42.4102 37.3276
ltoes 9.36018
715
root -35.1621 16.8333 -5.91652 1079.64 -159.375 -1078.28
lowerback 2.22804 -1.66011 -0.8424
upperback 2.54834 -2.29419 -0.897471
thorax 1.3589 -1.18609 -0.425614
lowerneck -7.98914 -6.41396 -4.9565
upperneck 8.16457 -9.40868 10.6485
head 4.50056 -4.36107 3.44032
rclavicle -7.43455e-014 -2.78299e-014
rhumerus -32.8895 -5.17183 -84.331
rradius 28.5017
rwrist 1.55357
rhand -19.8354 -4.81145
rfingers 7.12502
rthumb 6.49869 -34.6917
lclavicle -7.43455e-014 -2.78299e-014
lhumerus -25.422 2.3567 83.0571
lradius 21.2962
lwrist 10.5341
lhand -21.5278 16.0339
lfingers 7.12502
lthumb 4.86476 45.958
rfemur -22.7209 -12.9933 25.2265
rtibia 43.1939
rfoot -33.5136 -28.4999
rtoes 11.4896
lfemur -3.24716 14.8827 -22.2741
ltibia 24.3586
lfoot -42.9406 37.5676
ltoes 9.50164
716
root -35.1564 16.836 -5.94708 1079.62 -160.193 -1078.25
lowerback 2.18203 -1.68528 -0.76204
upperback 2.53321 -2.32548 -0.869096
thorax 1.36707 -1.2002 -0.442375
lowerneck -7.91982 -6.48068 -4.96738
upperneck 8.08182 -9.50034 10.6837
head 4.47343 -4.41071 3.44821
rclavicle -4.66647e-014 3.18055e-015
rhumerus -32.9022 -5.36922 -84.1958
rradius 28.1473
rwrist 1.84257
rhand -19.825 -4.7872
rfingers 7.12502
rthumb 6.50872 -34.6672
lclavicle -4.66647e-014 3.18055e-015
lhumerus -25.3867 2.61438 82.9049
lradius 21.1592
lwrist 10.2463
lhand -21.6008 16.0683
lfingers 7.12502
lthumb 4.79423 45.9941
rfemur -22.5156 -12.3611 25.3432
rtibia 43.0047
rfoot -33.3282 -28.3293
rtoes 11.5212
lfemur -3.10805 15.2956 -22.1437
ltibia 24.4201
lfoot -43.2881 37.7717
ltoes 9.54951
